<?xml version="1.0" encoding="utf-8"?>
<!-- Generator: Adobe Illustrator 26.3.1, SVG Export Plug-In . SVG Version: 6.00 Build 0)  -->
<svg version="1.1" id="Layer_1" xmlns="http://www.w3.org/2000/svg" xmlns:xlink="http://www.w3.org/1999/xlink" x="0px" y="0px"
	 viewBox="0 0 400 400" style="enable-background:new 0 0 400 400;" xml:space="preserve">
<style type="text/css">
	.st0{fill-rule:evenodd;clip-rule:evenodd;fill:#AF3173;stroke:#000000;stroke-width:0.5;stroke-miterlimit:10;}
</style>
<g id="Layer_1_00000044868357845228884260000007740415809595567006_">
	<path class="st0" d="M34.7,150.9L34.7,150.9L34.7,150.9c9.3,2.3,7,1.7,16.3,4l5.5,1.4c-0.8,2.9-0.6,2-1.6,6.2l-0.2,0.7
		c-0.1,0.6,0.2,0.3-1.9,1.8c-1.1,0.8-0.8,0.6-2,1.5c-0.2,0.1,0.1,0-2.4,1c-3.4,1.4-3.9,1.6-8.9,3.9l-0.9,0.4l14.2,1.8l-0.7,6.3
		c0,0.2,0,0.1,0,0.3l-22.5-1.7c0.6-5.1,0.5-3.8,1.1-8.8c0.6-0.6,0.1-0.2,3.6-3c0.8-0.6,0.5-0.5,2-1.1c3.6-1.6,4.6-2,8.9-3.7
		c0.4-0.2,0.3-0.1,0.7-0.3l1-0.4c-8-1.6-6-1.2-14.1-2.9L34.7,150.9L34.7,150.9z"/>
	<path class="st0" d="M50.5,121.9L50.5,121.9l0.1,0l1.5,2.2l2.9,0.1c0.6,0.1,0.6,0,1.6-1.2c0.1-0.2,0.5-0.6,0.6-0.7
		c0.6,0,0.4-0.1,1.4,0.3c1,0.4,2.1,0.9,2.8,1.3c0.2,0.1,0.3,0.2,0.4,0.3c-0.3,1.4-0.2,1.1-0.5,2.5l2.3,2.4l2.8-0.3
		c1,2.6,0.7,1.9,1.7,4.5l-2.3,1.4l-0.2,3.2c1.2,0.9,0.9,0.7,2.1,1.6l-0.4,1.3c-0.6,1.5-1,2.2-1.4,2.7c-0.1,0.1-0.2,0.2-0.3,0.3
		c-1.5-0.3-1.1-0.2-2.6-0.5l-2.6,2.2c0.2,1.5,0.1,1.1,0.3,2.5l-1.2,0.6l-1.8,0.7c-0.9,0.3-0.6,0.2-1.8,0.3c-0.9-1.2-0.6-0.9-1.5-2.1
		l-2.7-0.1c-0.6-0.2-0.5-0.3-1.8,1.4l-0.5,0.6c-0.5-0.1-0.4-0.1-0.9-0.2c-0.8-0.2-0.4,0-2.8-1.2c-0.6-0.3-0.5-0.2-0.9-0.5
		c0.3-1.5,0.2-1.1,0.5-2.6l-2.4-2.4l-2.7,0.3c-0.4-0.6-0.2-0.3-1.1-2.3c-0.3-0.7-0.5-1.4-0.5-2.2l2.2-1.4c0.1-1.8,0.1-1.4,0.2-3.2
		c-1.2-0.9-0.9-0.7-2.1-1.6c0.1-0.7,0-0.4,0.7-2.1c0.3-0.7,0.7-1.5,1.1-1.9c0.1-0.1,0.2-0.2,0.3-0.4l2.6,0.5l2.6-2.2l-0.3-2.6
		c0.8-0.4,0.5-0.3,2-0.9c1.2-0.5,0.8-0.4,2.4-0.7C50.3,122,50.4,122,50.5,121.9L50.5,121.9z M53.7,128.9L53.7,128.9
		c-0.3,0-0.5,0-0.7,0c-4.2,0.2-7.2,3.2-7.1,7.1c0,3.9,3.3,6.9,7.4,6.9c3.9,0,7.1-2.8,7.4-6.4C60.9,132.5,57.8,129.2,53.7,128.9
		L53.7,128.9z"/>
	<path class="st0" d="M51.6,227.9L51.6,227.9c4.6,0,4,0.1,4.2-0.5c0-0.1,0-0.1,0.1-0.5c0.2-0.9,0.2-0.9,1-0.8c0.4,0,0.4,0,0.3,1.1
		c0,5.1,0,4.4-0.1,4.5c-0.2,0.1-0.8,0.1-1,0c-0.1-0.1,0,0.1-0.4-1c-0.3-0.9-1-1.1-3.3-1c-1,0-1.3,0.1-1.9,0.3c0,0.9,0,0.7,0,1.8
		l0,1.6c0,0.7,0,0.5,0.1,1.9c0.1,1.1,0.1,1.2,0.4,1.4c0.4,0.2,1.9,0.3,2.8,0.2c0.6-0.1,0.4,0,1-0.1c2-0.2,3.4-1.1,4.3-2.9
		c0.2-0.4,0.2-0.4,1-0.4c0.3,0,0.4,0,0.4,0.1c0.1,0.2,0.1,0.2-0.1,0.7c-0.9,2.5-0.6,1.8-1.5,4.3c-8.5,0-6.4,0-14.9,0
		c-0.1-0.1-0.2-0.2-0.2-0.8c0-0.2,0-0.2,0.6-0.3c0.9-0.3,0.7-0.2,1.6-0.4l0-15.9c-2.1-0.8-1.8-0.7-2.1-0.7c-0.2,0-0.2-0.2-0.2-0.9
		c0-0.1,0-0.2,0.1-0.2c0.1-0.1,0.3-0.1,0.7,0l13.7,0l0.9,4.3l-0.6,0.2c-0.4,0-0.3,0.1-1-0.8c-1.1-1.3-2.5-2-4.6-2.1
		c-0.4,0-0.1,0-1.7,0c-0.2,0-0.4,0-0.6,0c-0.1,4.1-0.1,3-0.2,7.1C51.2,227.9,51,227.9,51.6,227.9L51.6,227.9z"/>
	<path class="st0" d="M74.1,94L74.1,94l3.3,2.8l-2.2,5.9l11.7,0.7l-5.2,5.8l-10.9-0.1l-2.9,4c4.2,2.6,3.1,2,7.3,4.6
		c-2.2,3.2-1.6,2.4-3.8,5.6l-15.6-8.8c-2-0.2-1.5-0.2-3.4-0.4c-0.6-0.1-0.5-0.1-1.3,0c2.9-4.5,2.3-3.6,4.1-6.3
		c3.5-5,6.4-8.8,10.5-13.4c0.7-0.8,0.3-0.6,2.5-1.2l3.6-1L74.1,94L74.1,94z M68.1,99L68.1,99l-7.4,9.5c1.7,1,1.2,0.8,2.9,1.8
		l7.2-9.3C69.3,99.9,69.7,100.1,68.1,99L68.1,99L68.1,99z"/>
	<path class="st0" d="M67.7,225.4L67.7,225.4c1.6,0,2.6,0.1,3.4,0.4c0.2,0.1,0.4,0.2,0.6,0.3l0.2,3.4c0,0.3-0.2,0.4-0.6,0.4
		c-0.6,0-0.5,0.1-0.9-0.3c0-0.1,0,0-0.2-0.5c-0.3-0.9-0.9-1.6-1.7-1.8c-1.3-0.4-2.4-0.1-2.6,0.7c-0.2,1,0.3,1.5,2.4,2.5
		c2.5,1.2,3.5,2,3.9,3.4c0.1,0.5,0.2,1,0.1,1.4c-0.2,1.1-0.5,1.8-1.4,2.4c-1.3,0.9-3.2,1.3-5.5,1c-0.9-0.1-1.9-0.4-2.6-0.8
		c-0.1-0.1-0.2-0.1-0.4-0.2l-0.3-3.2c0-0.2,0.1-0.4,0.4-0.4c0.5,0,1,0.1,1.1,0.3c0.1,0.4,0.1,0.3,0.2,0.7c0.4,1.3,1.5,2,3,2.1
		c1.2,0,1.9-0.7,1.7-1.6c-0.2-0.7-0.8-1.1-3-2.1c-2.5-1.2-3.5-2.4-3.5-4.2c0-1.5,0.8-2.6,2.3-3.2C65.5,225.5,66.3,225.4,67.7,225.4
		L67.7,225.4z"/>
	<path class="st0" d="M86.1,74.8L86.1,74.8c1.5-1.2,6.4-4.8,7.7-5.7c2.8,1.5,2.1,1.1,4.9,2.6c-5.1,3.7-3.8,2.8-8.9,6.5L101,90.7
		c-3,2.5-2.3,1.9-5.3,4.4l-11.8-12c-3.6,3.4-2.7,2.5-6.3,5.9l-5.4-1.7l4.6-4.5c2.7-2.5,4.5-4.1,8-6.9L86.1,74.8L86.1,74.8z"/>
	<path class="st0" d="M80.3,224.8L80.3,224.8l0,1.2c3.8,0,3.3,0,3.4,0.2c0.2,0.2,0.2,0.2,0,1c-0.1,0.6-0.2,0.6-0.9,0.6
		c-1.4,0-1.1,0-2.5,0c0,8.7-0.1,7.6,0.3,8.3c0.3,0.6,1.2,0.8,2.3,0.5c0.3-0.1,0.2-0.1,0.4-0.1c0.3-0.1,0.4,0,0.6,0.4
		c0.1,0.3,0,0.4-0.5,0.8c-1,0.7-2.6,1.1-3.8,0.9c-2.2-0.4-3.3-1.7-3.4-4.2l0-6.3c0-0.4,0.1-0.4-1.3-0.4c-0.8,0-0.7,0-0.9-0.4
		c-0.1-0.8-0.2-0.7,0.6-1.1c1.1-0.5,3.1-1.9,4.6-3.2c0.2-0.1,0.5-0.2,0.7-0.1C80.3,223.1,80.3,222.9,80.3,224.8L80.3,224.8z"/>
	<path class="st0" d="M87.9,234.4L87.9,234.4c0.3,0,0.8,0.2,1.1,0.3c0.7,0.4,0.9,0.8,1.1,1.4l0.1,0.4c-0.1,0.4-0.1,0.3-0.2,0.7
		c-0.2,0.7-0.9,1.4-1.6,1.4c-0.1,0,0,0-0.3,0.1c-0.2,0-0.1,0.1-0.5,0c-0.6-0.1-0.8-0.2-1.3-0.6c-0.7-0.6-0.9-1.6-0.5-2.4
		c0.3-0.6,1-1.1,1.6-1.2C87.6,234.4,87.5,234.4,87.9,234.4L87.9,234.4z"/>
	<path class="st0" d="M188.2,173.3L188.2,173.3l16.8,0.1l3.2,4.3c0.4,0.6,0.3,0.5,1.7,1c12.1,4.1,20,7.8,27,12.7
		c2.4,1.7,1.8,1.3,4.3,3l2.4-0.8c5.5-2,6-2.1,7.3-2.2c0.9,0,1.4,0.1,2.5,0.6c0.6-0.9,0.4-0.6,1.2-1.6l6.2-8.4
		c0.7-0.9,0.6-0.6,0.8-2.6l3.9-35.3l0-0.6c0-0.2,0-0.1,0.4-0.6l25.7-28.3l-0.1,1.6c-3.2,16.2-2.4,12.1-5.5,28.3
		c0,0.4-0.1-0.1,0.4,3.9c2.8,23.4,2.1,17.6,5,41c0.1,1.4,0.3,0.8-1.9,4.2L271,221.6l0.5,1c0.1,0.6,0,0.9-1.3,1.9
		c-0.8,0.7-0.8,0.7-1,2.1c-0.2,1.6-1,2.5-2.4,3c-1.4,0.4-1.5,0.6-1.3,2c0.4,2.4,1.7,6.1,2.7,7.7c0.3,0.5,0.3,0.5,0.8,0.5
		c0.3,0,0.1-1.1,0.9,7.9l1,12.8L234.4,282c1.9-7.6,1.5-5.7,3.4-13.4l-32.3,7.3c-1.7,4.8-1.3,3.6-3,8.3l-12.7,7.9
		c-7.4-4.7-5.5-3.5-12.9-8.2c-1.5-5.2-1.1-3.9-2.6-9.1c0-0.4-0.3-0.5-1.2-0.7c-6.1-1.4-4.6-1-10.7-2.4l-21.6-4.8c-0.1,0-0.2,0-0.3,0
		c1.9,8.4,1.4,6.3,3.3,14.6l-35-22c1-11.6,0.8-8.7,1.8-20.3c0.1-0.1,0-0.1,0.5-0.2c0.5-0.1,1.1-1.2,2.1-3.6c0.8-1.9,1.4-4.7,1.3-5.6
		c0-0.2,0-0.3-0.1-0.4c-0.4-0.3-0.1-0.2-1.5-0.7c-1.3-0.5-2-1.5-2.1-3.2c-0.1-1-0.1-1.1-1.4-2.3c-0.7-0.7-0.9-1.1-0.7-1.7
		c0.1-0.2,0.1-0.4,0.2-0.6l-19.9-30.7c-0.5-0.7-0.5-1.2-0.1-4.2l5.2-41l0.1-0.8c0.1-0.7,0.2-0.1-0.5-3.8c-2.8-14.7-2.1-11-4.8-25.8
		l-0.1-1.3l25.8,28.5c0.1,0.2,0.1,0,0.2,1l2.9,28.3c0.4,3.8,0.3,2.8,0.7,6.6c0.1,1.1,0.1,0.8,0.2,1.9l8.1,11.5
		c0.8-0.5,0.6-0.4,1.3-0.6c1.5-0.4,2.4-0.2,9.9,2.6c0.3,0.1,0.2,0.1,1,0.3l1.2-0.7c6.1-4.2,9.9-6.6,14.6-9.1
		c6.5-3.4,12-5.5,16.4-6.1c0.6-0.1,0.2,0.4,3-3.4l1.1-1.4C182.7,173.3,180.8,173.3,188.2,173.3L188.2,173.3z M99.8,132.9L99.8,132.9
		l-0.2-0.3c-3.1-3.5-2.7-3.1-2.8-3c-0.1,0.1-0.1,0,0.1,0.9c1.2,4.3,0.9,3.2,2,7.6c0.4,1.4,0.3,1.1,0.7,2.5l0.6,2.3
		c0.2,0.8,0.2,1.4,0,2.9c-0.2,1.1-0.1,0.9-0.2,1.2l-0.1,1.2c-0.1,0.9-0.1,0.7-0.2,1.6l-1.7,15.8c-0.6,5.5-0.4,4.1-1,9.6l-0.2,1.4
		c-0.1,0.7,0,0.6-0.1,1.3l-0.5,4l-0.4,4.3c-0.1,0.9-0.1,0.7-0.2,1.6c-0.1,1.8-0.2,1.6,0.5,2.7c9,13.8,6.7,10.4,15.7,24.2l11.2-18.4
		l-8.5-12.2c-2.6-3.7-2.2-3.2-2.3-3.7l-0.1-1.4l-0.2-1.2c-0.2-2.5-0.2-1.9-0.4-4.4c-0.1-0.9-0.1-0.7-0.2-1.6c-0.1-1.3,0-1.1-0.2-1.9
		l-0.7-8c-0.1-0.7-0.1-0.5-0.2-1.3c-0.1-1-0.1-0.7-0.1-1.7c-0.2-1.1-0.1-1-0.1-1.2c0-0.8,0-0.6-0.1-1.4L110,155l-0.1-1.4l-0.2-1.4
		c-0.1-1,0-0.8-0.1-1.8c-0.2-1.3-0.2-1.1-0.2-1.5l-0.4-4.2l-0.2-1.6L99.8,132.9L99.8,132.9z M142,197.4L142,197.4
		c-1.2,0.9-2.7,2.3-4.1,3.7c-6.5,6.2-11.9,13.7-15.3,21c-1.4,3.1-1.4,3.1-3,7.6c-0.9,2.5-0.8,2.3-1.1,3.4c-1.1,3.9-1.2,5.6-0.2,7.4
		c1.3,2.5,6.1,6.6,11.2,9.4c4.6,2.5,8.8,4.2,14.4,6c6.6,2.1,14.8,3.8,21.5,4.5l1.8,0.2l4.1,0.3l4.5,0c0-0.6-0.1,0.2,0.8-5.4l0.8-4.8
		c0.1-0.4,0-0.2,0.3-1.6l2.2-13.7c0.1-13.9,0-10.4,0.1-24.3c0-1.9,0-1.6,0-2l-5.6-17.1c-1.3-3.9-1-2.9-2.3-6.9c-0.4-1-0.3-0.7-0.6-2
		l-0.4-0.8c-0.4,0.1-0.3,0.1-0.7,0.2c-0.8,0.2-2,0.6-7.2,2.6C155.1,188.1,148.6,192,142,197.4L142,197.4z M240.4,199.9L240.4,199.9
		c-1.6-1.4-1.7-1.6-3-2.7c-6.2-5.2-12.8-9-20.1-11.9c-3-1.2-2.3-0.9-5.3-2c-0.7-0.3-0.3-0.1-2.7-0.9c-0.4,0.9-0.3,0.8-0.4,1
		c-0.2,0.9-0.1,0.7-0.4,1.3c-3.9,11.6-3,8.7-6.9,20.3c-1.6,4.7-1.4,4.1-1.4,4.4c0,8.7,0,6.5-0.1,15.2c-0.1,12.2-0.1,10.6,0,11.3
		l3.7,24.2c0.1,0.6,0.1,0.5,0.1,1.1l1.4,0c2.7,0,2.2,0,3.7-0.1l2.1-0.2c1.9-0.2,1.4-0.2,3.3-0.4c7.7-1,14.9-2.6,20.6-4.4
		c7.6-2.4,13.9-5.3,19.8-9c2.5-1.6,2.4-1.5,4.9-3.7c3.1-2.6,2.6-2.3,3.1-2.6l-1.2-5.6c-1.5-7-4.4-13.8-8.6-20.2
		C249.5,209.3,245.2,204.2,240.4,199.9L240.4,199.9z M280.5,133.8c-2.8,3.1-2.1,2.3-5,5.4c-1.6,1.8-1.2,1.3-2.9,3.1
		c-1.5,1.6-1.3,1.4-1.4,1.6l-0.3,2.5l-0.1,1.7c-0.2,1.3-0.2,1-0.2,1.9l-1.2,11.7c-0.1,1.1-0.1,0.8-0.2,1.8l-1.6,16.5
		c-0.2,1.6-0.1,1.3-0.3,1.6L256.6,197c6.2,10.4,4.7,7.8,10.9,18.2l4.3-6.5c4.3-6.5,8.3-12.7,10.2-15.7c2-3.2,1.9-3,2-3.7l-0.3-2.8
		c-0.1-0.8-0.1-0.6-0.1-1.4l-0.1-1.3c-0.1-0.8-0.1-0.6-0.2-1.3c-0.1-1-0.1-0.7-0.1-1.7c-0.2-1.1-0.1-1-0.2-1.2
		c-0.1-0.9,0-0.6-0.1-1.5c-0.1-0.7-0.1-0.5-0.2-1.2l-0.4-4.4l-0.2-1.1l-0.6-7.2c-0.1-0.7-0.1-0.5-0.2-1.1c-0.2-2.4-0.1-1.8-0.3-4.2
		c-0.1-1-0.1-0.7-0.2-1.7l-0.9-9.5c-0.2-1.7-0.3-2.4-0.2-3.1c1.9-6.9,1.5-5.2,3.4-12.1l0.5-2L280.5,133.8L280.5,133.8z"/>
	<path class="st0" d="M99.4,295.3L99.4,295.3c1.3-1.5,2.5-2.8,2.6-3c0.4-0.8,0.3-0.6,0.6-1.5c0.5-1,0.4-0.9,0.6-1.2
		c0.1-0.2,0.2-0.4,0.3-0.6l3.7,2.8c3.4,2.5,5.1,3.6,9.6,6.4c0.4,0.2,0.3,0.2,0.5,0.3l1,3.9l-3.9,6.1L108,308l0,10.9
		c-2.5-1.5-1.9-1.1-4.4-2.6c0.3-6.2,0.2-4.6,0.5-10.8l-4.9-3.4c-3.4,4.2-2.6,3.1-6,7.3l-3.6-2.7L99.4,295.3L99.4,295.3z
		 M104.9,295.1L104.9,295.1c-1.9,2.3-1.4,1.8-3.4,4.1c0.1,0.1,0.2,0.1,0.4,0.2l9.4,6.3l3.2-4.6l-9.4-6.3L104.9,295.1L104.9,295.1z"
		/>
	<path class="st0" d="M125.3,51.8L125.3,51.8l1.8-0.8c4.8,10.8,3.6,8.1,8.5,18.9c0.2,0.4,0.1,0.3,0.3,0.7l-6.5,2.8
		c-2.2-4.2-1.6-3.2-3.8-7.4l-10.8,5.5c2.5,4,1.9,3,4.4,7.1l-6,3.6L101,64.6c-0.1-0.2-0.1-0.2-0.2-0.3l7-4.1l4.4,7
		c6.4-3.2,4.8-2.4,11.1-5.6l-3.8-7.4C122.8,52.8,122,53.2,125.3,51.8L125.3,51.8z"/>
	<path class="st0" d="M125.7,304.7L125.7,304.7l1.8-0.5l6.7,3c3.1,1.3,2.3,1,6.5,2.6l1.1,0.4l1.7,3.5c0,0.3,0.4-0.8-2.8,7.8
		l-2.9,7.7c-2.4,0.8-1.8,0.6-4.3,1.4l-3.7-1.4c-2.1-0.8-3.4-1.3-6.5-2.6c-1.8-0.8-3.2-1.4-6-2.7c-0.4-0.2-0.3-0.1-0.6-0.3l-1.8-4
		c4.8-8.2,3.6-6.1,8.3-14.3L125.7,304.7L125.7,304.7z M126.2,308.6L126.2,308.6l-6.7,12.2l14.5,6.1l5.6-13.7
		c-7.4-3.1-5.6-2.3-13-5.5C126.3,308.2,126.4,308.1,126.2,308.6L126.2,308.6z"/>
	<path class="st0" d="M148.1,52.8L148.1,52.8c5.9-1.4,4.4-1.1,10.3-2.5c1.8,2.5,1.3,1.9,3.1,4.3L147,58.1c0.6,1.8,0.4,1.4,1,3.2
		l15-3.5l3,4.4c-5.4,1-4.4,0.8-6.4,1.2c-5.5,1.2-4.4,1-7.6,1.8c-4.4,1.2-3.8,1-7.9,2.4c-0.3,0.1-0.2,0.1-0.5,0.2
		c-0.4,0.1-0.3,0.1-0.7,0.2l-7.7-20c3.5-1.2,2.6-0.9,6.2-2c6.1-1.8,12.6-3.3,17.5-4.2l0.8-0.3c1.8,2.5,1.4,1.9,3.2,4.4l-4.3,0.8
		c-4.2,0.8-11.3,2.5-13.5,3.2c-0.2,0.1-0.4,0.1-0.6,0.2l1,3.1L148.1,52.8L148.1,52.8z"/>
	<path class="st0" d="M151.1,101.1c-0.1,29.6-0.1,22.2-0.2,51.8l0,2.7l-8.3,0l0.1-47.1l-5.6,0c0-4.2,0-3.2,0-7.4L151.1,101.1
		L151.1,101.1z"/>
	<path class="st0" d="M152.3,313.4L152.3,313.4l5,1.2c3.7,0.8,2.4,0.6,9,1.8l0.6,0.1c0.4,0.1,0.3,0.1,0.6,0.1l2.5,3.2l-0.8,5.5
		l-3.4,2.2c0.3,0.6,0.1,0.3,1.7,2.4c1,1.3,0.9,0.9,0.6,2.6l-0.4,3.2c0,0.1,0,0.1,0,0.2c-0.9,0.5-0.4,0.2-3.7,2.1
		c-0.1,0.1-0.2,0.1-0.3,0.2l-2.7-0.5c-5.3-0.9-12.8-2.6-16.4-3.6l-0.7-0.3c3-9.3,2.2-7,5.2-16.3c0.4-1.1,0.3-0.6,0.3-4
		c0-0.5,0-0.4,0-0.8L152.3,313.4L152.3,313.4z M150.8,326.6L150.8,326.6l-1.4,5c8,1.6,6,1.2,14,2.9c0.6-3,0.4-2.3,1-5.3
		c-7.7-1.6-5.8-1.2-13.5-2.8C150.8,326.5,150.8,326.4,150.8,326.6L150.8,326.6z M153.3,317.8L153.3,317.8c-0.8,2.9-0.6,2.2-1.4,5.1
		c7.5,1.5,5.6,1.1,13.1,2.7l1-5.4l-12.6-2.6L153.3,317.8L153.3,317.8z"/>
	<path class="st0" d="M199.3,101.3l-23.1,54.4l-9.2,0l19.3-46.2c0.2-0.5,0.2-0.4,0.3-0.8l-24.2-0.1l0-7.4c7.1,0,5.3,0,12.5,0
		L199.3,101.3L199.3,101.3z"/>
	<path class="st0" d="M196.9,49.2L196.9,49.2L196.9,49.2c-7.1,2.5-6.2,2.2-6.2,2.3c3.9,5.1,2.9,3.8,6.8,8.9
		c-4.6-0.2-3.5-0.1-8.1-0.3l-6.8-8.1c-2.9,0.2-2.2,0.1-5.1,0.3c0.4,4.7,0.3,3.5,0.8,8.2c0,0.1,0.1,0.1-0.8,0.1
		c-3.6,0.4-2.7,0.3-6.3,0.7l-0.2-1.6c-1.3-8.8-1-6.6-2.2-15.4c-1.2-1.8-0.9-1.4-2.2-3.2l-0.3-0.5c1-0.2,0.5-0.2,3.2-0.5
		c1.7-0.2,2.2-0.3,3.2-0.3c0.5-0.1,0.4,0,0.9-0.1c2-0.2,1.5-0.1,3.5-0.3c0.5-0.1,0.3,0,0.8-0.1l1.7-0.1l1.3-0.1l5.9-0.2
		c1.4,0,5.4,0,5.6,0c0.2,0-0.3-0.3,3.9,2.4l1,0.6C197,46.2,197.1,45.2,196.9,49.2L196.9,49.2z M188.9,43.8L188.9,43.8
		c-7,0.3-5.2,0.2-12.2,0.5l0.3,3.3l12.2-0.6l0-3.3L188.9,43.8L188.9,43.8z"/>
	<path class="st0" d="M188.7,318.3L188.7,318.3c0.6-0.1,0.3-0.1,2.7-0.1c2.6,0,2.7,0,3.1-0.1l0.6,0c0.9,0.7,0.5,0.4,2.9,2.4
		c0.1,0.1,0.2,0.1,0.3,0.2c0.7,9.3,0.5,7,1.2,16.2l-3.3,2.9l-2.3,0.1c-1.3,0-0.8,0-3,0.1c-1,0.1-5.1,0-5.9-0.1l-4.2-0.1
		c-0.6,0-0.3,0-1.6-0.1l-1.3-0.1l-3.3-3l1.6-16.2l3.3-2.5l3.5,0.2l2.5,0c2.1,0,1.7,0,2.5,0.1C188.2,318.3,188.3,318.3,188.7,318.3
		L188.7,318.3z M189.9,321.7L189.9,321.7l-9.8-0.1l-1,14.7l15.9,0.1c-0.4-8.4-0.3-6.3-0.7-14.6L189.9,321.7L189.9,321.7z"/>
	<path class="st0" d="M214.5,315.8L214.5,315.8c0.9-0.2,5-1,5.3-1.1l0.4-0.1l2.1,3.3l-8,1.7l3.6,17.9l-4.5,0.8l-3-18l-7,0.9
		c-0.9-2-0.7-1.5-1.5-3.4c1.1-0.2,0.8-0.2,2-0.3c0.9-0.1,5.1-0.6,6.6-0.9C212.5,316.2,211.9,316.3,214.5,315.8L214.5,315.8z"/>
	<path class="st0" d="M209.5,40.2L209.5,40.2c1.8,0.2,1.4,0.2,3.1,0.4c1.4,0.2,1.1,0.2,2.5,0.4c0.3,0.1-0.2-0.4,3.1,3.3
		c0.8,0.9,0.7,0.7,2.3,4.2c0.9,1.9,1.3,3,3,7l0.3,0.7c1.9-7.5,1.4-5.6,3.4-13.1l8,2c-3.6,11.6-2.7,8.7-6.3,20.4l-7.8-1.9l-2.7-3.6
		c-0.2-0.3-0.1,0-0.8-1.8c-1.3-3-1.6-3.7-4.1-8.8c-0.4-0.8-0.5-0.9-0.5-0.9c-0.7,4.3-0.5,3.2-1.3,7.5l-0.9,5.5l-7-0.8
		c1.3-11.9,0.9-8.9,2.2-20.8c0-0.1,0-0.1,0-0.2c0.7,0,0.4,0,1.9,0.1c0.5,0.1,0.4,0,1,0.1c0.4,0.1,0.3,0,0.7,0.1
		C209.4,40.2,209.4,40.2,209.5,40.2L209.5,40.2z"/>
	<path class="st0" d="M208.9,104.9L208.9,104.9c2.8-2.4,6.4-3.7,11-4.1c2.4-0.2,3.6-0.2,6,0.2c4.2,0.5,7.7,2.2,10.5,5
		c2.4,2.4,4,6,4.4,9.6c0.2,1.9,0.2,3,0.1,4.5l-0.1,1.2c-0.1,2-0.9,4.9-1.7,7c-1.8,4.6-4.4,8.2-10.3,14.5c-3.3,3.5-2.6,2.7-5.1,5.6
		c11.7,0,8.8,0,20.4,0.1l0,7.5c-22.8-0.1-17.1-0.1-39.8-0.1l-0.2,0l7.4-7c9.5-9,15.6-15.9,19.1-22c1.5-2.6,2.2-5.9,1.9-8.9
		c-0.5-4.4-2.6-7.5-6.1-9c-1.5-0.7-3.4-0.9-5.6-0.7c-4,0.4-6.9,2.4-8.3,6c-1,2.5-1.1,5-0.3,7.5c0.5,1.5,1.2,2.7,2.7,4.6
		c0.1,0.1,0,0.1,0.1,0.1l-4.8,4.7c-0.9-0.6-0.7-0.4-1.5-1.2c-2.8-2.4-4.5-5.8-5.1-9.9c-0.4-2.9-0.1-5.9,0.9-8.7
		C205.4,108.8,206.8,106.7,208.9,104.9L208.9,104.9z"/>
	<path class="st0" d="M229.8,312.5L229.8,312.5l7,20.3l-4.4,1.3l-6.5-20.9c2.2-0.6,1.6-0.5,3.8-1.1L229.8,312.5L229.8,312.5z"/>
	<path class="st0" d="M244.6,310.4L244.6,310.4c-2.3,1-1.8,0.8-4.1,1.8l5.9,13.6c7.8-3.5,5.9-2.6,13.7-6.1c1.7,1.5,1.3,1.1,2.9,2.5
		c-1.8,0.9-1.4,0.7-3.2,1.6c-4.2,2-7.1,3.3-12.5,5.4l-0.6,0.2l-4.3-1.4l-6.1-15.3l1.7-3.6l11.2-4.8l4,1c0.9,1.6,0.7,1.2,1.6,2.7
		c-2.1,1-1.6,0.8-3.6,1.8l-1-2L244.6,310.4L244.6,310.4z"/>
	<path class="st0" d="M268.1,58.3L268.1,58.3c6.6,3.6,8,4.4,12.2,7.1l1.5,1c-0.6,3-0.5,2.2-1.1,5.2l-4.3-2.8
		c-3.5-2.2-6.6-4-10.2-5.9l-1.6-0.9l-1.7,2.9l11.4,6.5l-1.1,5.1c-7.3-4.2-5.4-3.2-12.7-7.4l-4.2,7.2l-6.3-3.1l9.8-19.1l8.1,4
		C268,58.2,268,58.2,268.1,58.3L268.1,58.3z"/>
	<path class="st0" d="M273.5,293.1L273.5,293.1c0.9,1.1,0.6,0.8,1.8,2.1c0.1,0.1,0.1,0.1,0.2,0.2l-3.3,2.4l-1.4-1.8
		c-4.9,3.2-3.7,2.4-8.6,5.6c1.8,2.7,1.4,2,3.2,4.8c6-4,4.5-3,10.5-7l4.4,0.2l4.7,5.5c-0.5,2.4-0.4,1.8-0.9,4.1l-2.8,2
		c-3.1,2.2-8.1,5.4-11,7c-0.3,0.1-0.2,0.1-0.4,0.3l-3.1-2.4l5.8-3.4c2.4-1.5,1.5-0.9,6.2-4.1l1.5-1c0.4-0.3,0.3-0.2,0.7-0.5
		l-3.5-4.3l-10.9,7.1l-4.3-0.8l-4-6.2c0.6-2.2,0.4-1.6,1-3.8c5.6-3.7,4.2-2.8,9.9-6.5L273.5,293.1L273.5,293.1L273.5,293.1z"/>
	<path class="st0" d="M288.8,73.5L288.8,73.5L288.8,73.5l1.6,2.2c1.6,0.1,1.2,0.1,2.9,0.1c0.6,0.1,0.6,0,1.6-1.2l0.6-0.7
		c0.6,0,0.4-0.1,1.4,0.3c1,0.4,2.2,0.9,2.8,1.3c0.2,0.1,0.3,0.2,0.4,0.3c-0.3,1.4-0.2,1.1-0.5,2.5l2.3,2.4c1.6-0.2,1.2-0.1,2.8-0.3
		c1,2.5,0.7,1.9,1.7,4.5l-2.3,1.4l-0.2,3.2l2.1,1.6l-0.4,1.3c-0.7,1.6-1,2.2-1.4,2.7c-0.1,0.1-0.2,0.2-0.3,0.3l-2.6-0.5
		c-1.5,1.3-1.1,1-2.6,2.2c0.2,1.4,0.1,1.1,0.3,2.5l-1.2,0.6c-1,0.4-0.8,0.3-1.8,0.7c-0.6,0.2-0.3,0.1-1.8,0.4l-1.5-2.2l-2.7-0.1
		c-0.7-0.2-0.5-0.3-1.9,1.4c-0.2,0.3-0.2,0.2-0.4,0.5l-0.8-0.2c-0.8-0.2-0.4,0-2.8-1.2l-0.9-0.5c0.3-1.5,0.2-1.1,0.5-2.6l-2.4-2.4
		l-2.7,0.3c-0.4-0.6-0.3-0.3-1.1-2.3c-0.2-0.5-0.4-1.1-0.5-1.6c0-0.2,0-0.4-0.1-0.6c1.3-0.8,0.9-0.6,2.2-1.4l0.2-3.2
		c-1.2-0.9-0.9-0.7-2.1-1.6c0.1-0.7,0-0.4,0.7-2.1c0.3-0.7,0.7-1.5,1.1-1.9c0.1-0.1,0.2-0.2,0.3-0.4l2.6,0.5l2.6-2.2
		c-0.2-1.5-0.1-1.1-0.3-2.6c0.9-0.5,0.6-0.3,2-0.9c1.2-0.4,0.9-0.4,2.3-0.7C288.6,73.6,288.6,73.5,288.8,73.5L288.8,73.5z M292,80.5
		L292,80.5c-0.2,0-0.3,0-0.5,0c-4.2,0-7.4,3.1-7.4,7c0,3.9,3.1,6.9,7.3,7c3.9,0.1,7.2-2.7,7.5-6.4C299.2,84.1,296.1,80.8,292,80.5
		L292,80.5z"/>
	<path class="st0" d="M297,220.8L297,220.8c0.9-0.5,1-0.5,1.2-0.4c0.2,0.1,0.3,0.3,0.2,0.7c-0.1,0.3-0.1-0.1-0.1,2.3l0,12.5l1.3,0.5
		c0.4,0.1,0.5,0.2,0.4,0.7c-0.1,0.5,0,0.5-0.8,0.4l-6.2,0c-0.4,0.1-0.5,0-0.6-0.2c-0.1-0.7,0-0.8,0.6-0.9c0.8-0.2,1.2-0.5,1.2-0.9
		l0-11.1c-0.2-0.3-0.5-0.3-0.9-0.2l-1.5,0.7c-0.4-0.3-0.3-0.2-0.4-0.5c-0.1-0.4-0.2-0.4,1.5-1.3L297,220.8L297,220.8z"/>
	<path class="st0" d="M311.5,95.8L311.5,95.8l1.4-2.6l4.1,4.9c3.7,4.4,6.4,8.1,10.5,14.4l0.6,0.9l-0.3,5.5l-6.7,3.5l-5.2-4
		l-4.6,10.2c-2.3-3.7-1.7-2.8-4.1-6.5c2.1-5.6,1.6-4.2,3.8-9.7l-2.9-3.9l-7.1,4.9l-4.4-5.3l14.1-10.9l0.4-0.8
		C311.4,96,311.4,96.1,311.5,95.8L311.5,95.8z M315.2,103.7L315.2,103.7L315.2,103.7l-2.9,1.9c3.9,5.5,2.9,4.1,6.8,9.6
		c1.7-1,1.3-0.7,3-1.7L315.2,103.7L315.2,103.7z"/>
	<path class="st0" d="M305.3,220.5L305.3,220.5c0.3-0.1,0.1-0.1,1-0.2c0.7-0.1,1-0.1,2,0.1c1.5,0.3,3.1,1.3,3.8,2.6
		c0.7,1.1,0.9,2.4,0.7,3.8c-0.3,1.9-0.7,2.9-1.7,4.5c-1.6,2.4-4.5,4.6-7.9,6c-0.9,0.4-0.8,0.4-1,0.1c-0.3-0.3-0.3-0.4-0.2-0.8
		c0.1-0.1,0,0,0.7-0.4c2.3-1.1,4-2.7,5.1-4.7c0.2-0.3,0.1-0.2,0.3-0.7c0.3-0.6,0.2-0.5,0.2-0.9c0-0.1,0,0,0-0.1l-0.9,0.2
		c-1.9,0.1-3-0.2-4.2-1.2c-1.2-1-1.8-2.2-1.8-3.5c0-1.2,0.3-2.1,1.1-3C303.1,221.5,304.1,220.9,305.3,220.5L305.3,220.5z M307,221.7
		L307,221.7c-0.4,0-0.6,0.1-0.9,0.2c-0.7,0.4-0.9,1.2-0.9,3.1c0,2.4,0.5,3.3,1.8,3.7c0.7,0.2,1.4,0,1.6-0.3c0-0.1,0,0,0.2-0.3
		c0.2-0.3,0.3-1.2,0.2-3.2C308.9,222.9,308.2,221.7,307,221.7L307,221.7z"/>
	<path class="st0" d="M318,220.6L318,220.6c0.8-0.2,1.6-0.3,2.3-0.2c1.9,0.3,3,0.8,4.2,2.1c1.3,1.5,1.6,3.9,0.6,6.6
		c-1.2,3.5-4.7,6.6-9.7,8.6c-0.3,0.1-0.4,0-0.6-0.5c0-0.1,0-0.1-0.1-0.2c-0.1-0.2-0.1-0.1,0.8-0.6c2.6-1.2,4.6-3.2,5.5-5.5
		c0.3-0.6,0.3-0.8,0.1-0.8c-0.1,0,0,0-0.5,0.1c-0.6,0.2-2,0.1-2.9-0.2c-1.9-0.6-3.2-2.1-3.6-3.9c-0.4-1.9,0.9-4.1,2.9-5.1
		C317.5,220.7,317.6,220.7,318,220.6L318,220.6z M319.9,221.8L319.9,221.8c-0.9,0-1.5,0.5-1.7,1.5c-0.2,1-0.2,2.3,0,3.5
		c0.2,1.2,0.9,1.9,1.9,2.1c1.2,0.2,1.7-0.4,1.8-1.7C322,223.8,321.3,221.8,319.9,221.8L319.9,221.8z"/>
	<path class="st0" d="M342.6,143.6L342.6,143.6c0.3,0.8,0.3,0.6-0.7,4.2l-0.5,1.9l-4,1.1l-2.3-7.1l2-0.7l-4.1-10.1l-11.3,4.5
		l5.5,14.4l-4.4,3.2l-1.6-5.1c-1.7-4.8-2.7-7.4-5.1-12.5c-0.2-0.4-0.2,0,0.3-2.9c0.2-0.9,0.1-0.7,0.3-1.5l0.1-0.5
		c0-0.2,0.1-0.3,0.1-0.4l14.6-6.7l4.8,2.9c0.2,0.2,0.4,0.5,1.9,4c1.4,3.2,1.7,3.9,3.6,9L342.6,143.6L342.6,143.6z"/>
	<path class="st0" d="M345,180.9L345,180.9l-0.1-1.4l-0.1-1.1l-0.1-1.1c0-0.2,0-0.1-0.1-0.9c0-0.5,0-0.4-0.1-0.9l-0.1-0.8l-0.1-0.9
		l-0.4-3.3l-1-6c0-0.1-0.1-0.2-0.1-0.3l-3.4,0.6c1,7.1,0.8,5.3,1.8,12.5l-4.9,2.4l-2-14c-2,0.3-1.5,0.3-3.5,0.6l1.9,14.4l-5.1,2.3
		l-0.1-2c-0.1-0.5-0.1-0.3-0.1-1.6l-0.5-4.9c-0.2-2.1-1.1-6.7-1.8-10.1l-0.8-3.3c0-0.1-0.1-0.2-0.1-0.3c12.6-2.8,9.4-2.1,22-4.9
		l1.1,4.6c0.9,4.3,1.2,5.9,2,11.6l0.5,4.5c0.1,0.7,0.1,0.5,0.1,1.2c0,0.7,0,0.5,0.1,1.2l0.1,0.7l-4.9,2.5L345,180.9L345,180.9z"/>
	<path class="st0" d="M337.3,221.6L337.3,221.6c-2.7,1.3-4.7,3.3-5.7,5.7c-0.2,0.4-0.1,0.3-0.3,0.7c2-0.4,1.7-0.4,2.4-0.3
		c2.3,0.2,4.2,1.7,4.7,3.7c0.7,2.5-1,5.2-3.9,6c-2.3,0.7-5.2-0.3-6.5-2.3c-1.2-1.8-1.3-4.3-0.1-6.9c0.7-1.6,1.9-3.1,3.5-4.5
		c1.6-1.3,3.7-2.6,5.6-3.3c0.5-0.2,0.5-0.2,0.8,0.1c0.3,0.5,0.3,0.6-0.3,0.9C337.4,221.5,337.3,221.6,337.3,221.6L337.3,221.6z
		 M332.6,229.2L332.6,229.2c-0.2,0-0.2,0-0.2,0c-0.5,0-0.9,0.2-1.2,0.6c-0.2,0.4-0.4,1.5-0.3,2.4l0.1,1c0.1,2,0.7,3,1.8,3.1l1-0.1
		c0.1-0.1,0.1-0.1,0.2-0.2c0.5-0.5,0.6-0.8,0.7-1.7c0.2-1.7,0-3.3-0.5-4.1C333.7,229.5,333.5,229.4,332.6,229.2L332.6,229.2z"/>
</g>
</svg>
