<svg id="Layer_1" xmlns="http://www.w3.org/2000/svg" viewBox="0 0 1409.9 491.1"><style>.st0,.st1{fill:#fff}.st1{fill-rule:evenodd;clip-rule:evenodd}</style><path class="st0" d="M293.2 5.3l2.2-5.3 2 4.6c46.2 107.2 92.3 214.4 138.5 321.6 5.1 12 10.5 23.9 15.3 36 .2-111.9 0-223.8.1-335.7 0-5.4-.2-10.8.2-16.2 13.2 12.9 25.5 26.8 38.6 39.8 9.1 10.5 19.5 19.8 28.6 30.3 7.3 7.5 14.8 14.7 21.6 22.6 12.4 12.2 23.8 25.4 36.2 37.6 8.1 9.6 17.6 17.8 25.8 27.3 18.9 19.4 37.4 39.3 56.3 58.7 7 7.5 13.9 15.3 21.7 22.1.2-74.8 0-149.7.1-224.5 16.8-.4 33.7-.2 50.5-.1.2 116.3.1 232.7.1 349-.3-.1-1-.3-1.3-.4-2.9-3.4-6.4-6.4-9.4-9.8-7.4-8.8-16.1-16.5-23.8-25-8.2-9.2-17.4-17.4-25.5-26.8-6.1-6.3-12.2-12.4-18.2-18.7-6.6-7.7-14.1-14.6-21-22.1-6.4-7.2-13.4-13.8-20-20.9-7.5-8.6-15.8-16.4-23.6-24.6-6.9-8.3-15.1-15.4-22.3-23.5-5.9-7.1-12.8-13.2-19.1-19.9-7-8.3-15.1-15.6-22.5-23.6-5.5-6.8-12.2-12.5-18-19-1-1.4-2.5-2.1-4.1-2.4-.2 75.2 0 150.4-.1 225.6-7.1.4-14.3 1-21.4.2-28.5.8-57.1.5-85.6.7-1.7-2.3-2.7-5.1-3.8-7.7-13.3-31-26.1-62.2-39.5-93.2-33.7-.1-67.4 0-101.1 0 6.8-17 14.7-33.5 21.4-50.5 4.5-.8 9-.2 13.5-.4 15.6-.1 31.2.3 46.7-.2-12.2-29.2-24.4-58.4-36.6-87.7-6 12.2-10.7 24.9-16.2 37.3-28.6 67.4-57.1 134.8-85.8 202.1-18.7.2-37.3.1-56 .1.2-1.3.2-2.6.6-3.8C186.5 249 234.5 139 282.7 29.1c3.3-7.8 7.2-15.7 10.5-23.8z"/><path class="st0" d="M897.4 23c28.7-4.4 58.7-2.7 86 7.7 16 6 31.1 14.6 44.5 25.2.5 7.8.1 15.7.2 23.6-.1 15.7.2 31.4-.2 47-5.5-4.5-10.2-10.1-15.4-15-15.7-16.9-36.2-29.2-58.4-35.4-14-3.5-28.7-5.4-43-3.3-24.2 2.5-47.1 13.8-64.8 30.3-24.2 22.4-39.3 55.1-38.5 88.4-.8 29.2 11.1 57.9 30.3 79.6 5.5 5.5 10.8 11.3 17.1 15.9 20.8 16 47.1 24.9 73.3 23.9 23.6-1.1 46.6-9.8 65.7-23.6 10.4-7 18.9-16.4 27.8-25.2 1.9-1.8 3.4-4.1 6.1-4.7.1 16.3 0 32.7.1 49-.2 7.4.3 14.7-.3 22.1-3.6.4-6.1 3.3-9 5-15.6 10.3-33 18.3-51.1 23-31.5 8.5-65.4 7-96.4-3-25.4-8.6-49.1-22.8-67.9-41.9-18.2-17.8-31.9-40.1-40.5-64.1-13.9-40.1-11.8-85.5 5.5-124.3 9.2-20.8 22.6-39.8 39.2-55.4 24.5-23.4 56.2-39.4 89.7-44.8z"/><path class="st0" d="M1066.2 21.2c31.4-.1 62.8 0 94.3 0 11 .2 22-.5 33 .4-20.1 5.5-39.6 14-56.6 26.1-32.6 22.7-57.4 56.5-68.3 94.7-.8 2.3-1.5 4.6-2.1 7-.7-23.3-.1-46.7-.3-70 0-19.4-.2-38.8 0-58.2z"/><path class="st0" d="M0 21.9c1.1-.6 2.3-.8 3.5-.8 15.4.1 30.9 0 46.3 0 .3.2.8.7 1.1.9 0 97.2-.1 194.5 0 291.7h97.4c-6.5 15.6-13.6 30.8-20.4 46.2-.6 2.5-3.5 1.8-5.5 2-40.8-.1-81.5.2-122.3-.2V33.3c.2-3.7.2-7.6-.1-11.4z"/><path class="st0" d="M1227.3 100.5c20.2-2.4 41.2 2.2 58.3 13.1 15.8 10 28.6 24.9 35.9 42.2 8.8 21 9.3 45.2 1.8 66.6-7 19.5-20.8 36.6-38.5 47.3-16.6 10.2-36.7 14.8-56.1 12.6-19.8-2-38.8-11-53-24.9-14.9-14.1-24.4-33.6-27.2-53.9-1.1-10.8-.7-21.9 1.3-32.6 2.2-7.6 4.6-15.2 8.4-22.2 10-18.9 26.6-34.3 46.4-42.2 7.2-3.1 14.9-4.7 22.7-6z"/><path class="st0" d="M1066.3 234.4c2.6 7 4.2 14.3 7.2 21.2 15.3 38.8 45 71.6 81.9 91 12.4 6.8 25.8 11.4 39.4 15.3-42.9 0-85.7.1-128.6-.1-.1-30.5 0-61-.1-91.4.1-12-.2-24 .2-36z"/><path class="st0" d="M1404.6 250.4c1.7-4.9 3.4-9.8 4.4-14.9 1.6 10.6.5 21.3.8 32v86.1c-.1 2.8.3 5.7-.7 8.5-40.8-.2-81.7.1-122.5-.1-1.1.3-3.4.8-4.5 1-.1-.6-.4-1.4.5-1.5 20-5.4 39.4-13.7 56.4-25.7 30.1-20.7 53.4-51 65.6-85.4z"/><path class="st1" d="M1219.1 27.2c5.4-.8 11-.9 16.5-.8 44.8-1.5 89.5 17.3 120.9 49.1 30.1 30.4 48.7 72.9 47.8 115.9 1 43.1-17.1 85.9-47.5 116.2-26.1 26.4-61.4 43.4-98.2 47.8-39.3 4.9-80.2-4.6-113.1-26.7-33.3-22.1-58.4-56.5-68.4-95.3-11.8-43.5-4.2-91.6 19.9-129.6 19.8-31.5 50.4-56.1 85.7-68.2 11.7-4.1 23.9-7 36.4-8.4zm6 65.1c-29.6 3.8-56.9 22.1-71.9 47.8-11 18.3-15.8 40.2-13.5 61.4 3.2 35.5 27 68.2 59.9 82 20.4 8.9 43.8 10.2 65.2 4.3 19.7-5.7 37.6-17.5 50.4-33.6 12.2-15.3 20-34.2 21.6-53.7 1.8-19.6-2.3-39.9-11.8-57.1-10-18.6-26.2-33.8-45.3-42.7-17-8.2-36.2-10.8-54.6-8.4z"/><path class="st1" d="M99.3 398.1c27.4 20.2 54.7 40.7 82 61-.3-18.3-.1-36.7-.1-55 5.8 0 11.7-.1 17.5 0 0 29 .2 58-.1 87-27.2-20.5-54.8-40.5-81.9-61.2.1 18.3.1 36.6 0 54.9-5.9 0-11.7.1-17.6 0 .2-29 0-57.8.2-86.7z"/><path class="st1" d="M928.7 400.6c.5-.9 1.9-3.1 2.8-1.3 17.2 28.4 34.4 56.9 51.4 85.4-6.7 0-13.3.2-20-.1-3.7-7.1-8.3-13.8-12-21-14-.2-27.9-.1-41.9 0-4 7.1-8.4 14.1-12.5 21.2-6.5-.1-13.1.1-19.6-.1 17-28.2 34.6-56 51.8-84.1zm-11.1 49.3c8.3-.1 16.7 0 25 0-4-7.2-8.6-14.1-12.4-21.4-4.1 7.2-8.6 14.2-12.6 21.4z"/><path class="st1" d="M586.3 406.3c14.5-4.6 30.4-4.8 45.1-.6 10.4 3 20 8.8 27.5 16.7-4.5 2.9-9 6-13.6 9-8.4-9.6-21.1-14.8-33.8-14.9-11.4-.5-23.3 2.6-32.3 9.8-6 4.9-10.4 12.4-9.6 20.3.8 8 6.7 14.4 13.3 18.4 16.3 10.1 38.9 10.1 54.3-1.7 2.6-2.1 4.8-5 5.5-8.3h-30.6c-.2-4.5 0-9-.1-13.5 16.6-.2 33.1-.1 49.7-.1.4 9.2-.4 19.4-6.8 26.5-8.8 10.3-22.2 15.5-35.4 17.4-3.5.4-7 1-10.5.5-8.7.6-17.5-1.3-25.7-4.1-11.4-4.3-22.3-11.9-28-23-4.9-9.6-4.3-21.7 1.5-30.8 6.5-10.8 17.8-17.7 29.5-21.6z"/><path class="st1" d="M.3 404h17.5c.3 26.9 0 53.8.1 80.6-5.9.2-11.7 0-17.6.1V404z"/><path class="st1" d="M273.5 404h69c.1 4.5.1 9.1.1 13.6-8.6.1-17.2.1-25.8 0v67.1c-5.9 0-11.8.1-17.7-.1.1-22.3 0-44.7 0-67-8.5 0-17.1.1-25.6 0V404z"/><path class="st1" d="M416.8 484.5c.2-26.8-.3-53.7.2-80.5 20.1.1 40.2-.4 60.2.2v13.3c-14.2.3-28.5.1-42.7.1V434c13.8-.1 27.5 0 41.3 0 .3 4.5.1 9 .2 13.5-13.8.3-27.7.1-41.5.1v23.5c14.2-.1 28.3 0 42.5 0 .4 4.3.3 8.7.1 13l-.5.5c-19.9.1-39.8.4-59.8-.1z"/><path class="st1" d="M741.3 404.1c10.1 0 20.1-.3 30.2.5 4.2.5 8.5 1 12.5 2.6 5.8 1.5 11.2 5.1 14.4 10.3 4.1 7.8 3 18.2-3.4 24.5-4.4 4.8-10.7 7-16.8 8.5 11.1 11.5 22.4 22.8 33.6 34.2-7.1.2-14.2.1-21.3.1-2.2.1-3.2-2.4-4.6-3.6-9-9.3-18-18.6-27.1-27.8.1 10.5.1 20.9 0 31.4h-17.6c.1-26.9.1-53.8.1-80.7zm17.6 13.5c0 6.9.1 13.8 0 20.7 6.9.1 14.3.4 20.5-3.1 5.7-3.1 5-13.2-1.3-15.2-6.1-2.3-12.8-2.2-19.2-2.4z"/><path class="st1" d="M1037.4 404c22.7 0 45.5-.2 68.2.1 1.1 4.2.1 8.9.5 13.3-8.5.4-17.1.1-25.6.1.1 22.4-.1 44.8.1 67.1-5.8 0-11.7-.1-17.5 0-.5-22.4 0-44.8-.2-67.1-8.4 0-16.9.1-25.4 0 0-4.4 0-8.9-.1-13.5z"/><path class="st1" d="M1180.6 404h60.3c.2 4.5.1 9.1.1 13.6h-42.8c-.1 5.4 0 10.9-.1 16.3 13.8.1 27.7 0 41.5 0 .1 4.5 0 9.1.1 13.6-13.9 0-27.8-.1-41.6.1V471c14.2.1 28.4.1 42.7 0 .3 4.5.2 9.1 0 13.7h-60.5c.3-26.8.1-53.7.3-80.7z"/><path class="st1" d="M1321.3 404.1c13.8.2 27.7-.7 41.4 1.2 10.5 1.2 20.6 5.4 29 11.8 4.3 3.2 7.7 7.6 10.2 12.3 5.3 10.4 4.6 23.7-2.1 33.4-5.7 8.2-14.4 13.9-23.5 17.5-17.6 6.5-36.7 4.1-55 4.6-.1-27-.1-53.9 0-80.8zm17.6 13.6c-.1 17.8.1 35.6-.1 53.4 9 .1 18.1 0 26.9-2.4 8.3-2.6 16.4-7.8 20.2-15.9 2-4 1.8-8.6 1.4-12.9-1.8-8.4-8.8-14.5-16.4-17.9-10-4.5-21.3-4.3-32-4.3z"/></svg>