<?xml version="1.0" encoding="UTF-8" standalone="no"?>
<!-- Created with Inkscape (http://www.inkscape.org/) -->

<svg
   width="128"
   height="128"
   viewBox="0 0 128 128"
   version="1.1"
   id="svg1"
   xml:space="preserve"
   style="color-scheme: only light; forced-color-adjust: none;"
   xmlns="http://www.w3.org/2000/svg"
   xmlns:svg="http://www.w3.org/2000/svg"
   xmlns:rdf="http://www.w3.org/1999/02/22-rdf-syntax-ns#"
   xmlns:cc="http://creativecommons.org/ns#"
   xmlns:dc="http://purl.org/dc/elements/1.1/"><title
     id="title2">Town Fair Tire logo</title><defs
     id="defs1"><clipPath
       clipPathUnits="userSpaceOnUse"
       id="clipPath2"><path
         d="M 0,5000 H 5000 V 0 H 0 Z"
         transform="translate(-105.9373,-2500.0001)"
         id="path2" /></clipPath><clipPath
       clipPathUnits="userSpaceOnUse"
       id="clipPath4"><path
         d="M 0,5000 H 5000 V 0 H 0 Z"
         transform="translate(-4528.5221,-2500.0001)"
         id="path4" /></clipPath></defs><g
     id="layer-MC0"
     style="display:inline"
     transform="translate(-140.58306,-140.58271)"><path
       id="path1"
       d="m 0,0 c 0,1322.204 1071.858,2394.063 2394.063,2394.063 1322.204,0 2394.062,-1071.859 2394.062,-2394.063 0,-1322.204 -1071.858,-2394.063 -2394.062,-2394.063 C 1071.858,-2394.063 0,-1322.204 0,0"
       style="display:inline;fill:#000000;fill-opacity:1;fill-rule:nonzero;stroke:#231f20;stroke-width:1;stroke-linecap:butt;stroke-linejoin:miter;stroke-miterlimit:10;stroke-dasharray:none;stroke-opacity:1"
       transform="matrix(0.02672722,0,0,-0.02672722,140.59642,204.58272)"
       clip-path="url(#clipPath2)" /><path
       id="path3"
       d="m 0,0 c 0,-1120.322 -908.2,-2028.522 -2028.522,-2028.522 -1120.322,0 -2028.522,908.2 -2028.522,2028.522 0,1120.322 908.2,2028.522 2028.522,2028.522 C -908.2,2028.522 0,1120.322 0,0"
       style="display:inline;fill:#ec2227;fill-opacity:1;fill-rule:nonzero;stroke:none;stroke-width:1;stroke-linecap:butt;stroke-linejoin:miter;stroke-miterlimit:10;stroke-dasharray:none;stroke-opacity:1"
       transform="matrix(0.02672722,0,0,-0.02672722,258.79982,204.58272)"
       clip-path="url(#clipPath4)" /></g><g
     id="g2774"
     style="display:inline;opacity:1;stroke:#000000;stroke-width:7.71969;stroke-linecap:round;stroke-linejoin:round;stroke-dasharray:none;stroke-opacity:1;paint-order:stroke fill markers"
     transform="matrix(0.11471804,0,0,0.14693941,-86.807268,-102.81878)"><g
       id="g2765"
       transform="translate(82.900865,-58.022049)"
       style="fill:#ffffff;fill-opacity:1;stroke:#000000;stroke-width:7.71969;stroke-linecap:round;stroke-linejoin:round;stroke-dasharray:none;stroke-opacity:1;paint-order:stroke fill markers"><g
         id="g3276"
         style="display:inline;opacity:1;fill:#ffffff;fill-opacity:1;stroke:#000000;stroke-width:7.71969;stroke-linecap:round;stroke-linejoin:round;stroke-dasharray:none;stroke-opacity:1;paint-order:stroke fill markers"
         transform="translate(-2.7511012e-6)"><g
           style="fill:#000000;fill-opacity:1;stroke:#000000;stroke-width:12.3515;stroke-linecap:round;stroke-linejoin:round;stroke-dasharray:none;stroke-opacity:1;paint-order:stroke fill markers;enable-background:accumulate;stop-color:#000000;stop-opacity:1"
           id="g3275"><path
             d="m 993.412,1304.49 v 32.44 l 32.768,22.94 v -32.43 z"
             id="path3268" /><path
             d="m 993.412,1336.93 h 42.428 l 32.77,22.94 h -42.43 z"
             id="path3269" /><path
             d="m 1035.84,1336.93 v 115.96 l 32.77,22.95 v -115.97 z"
             id="path3270" /><path
             d="m 1035.84,1452.89 h 37.24 l 32.76,22.95 h -37.23 z"
             id="path3271" /><path
             d="m 1073.08,1452.89 v -115.96 l 32.76,22.94 v 115.97 z"
             id="path3272" /><path
             d="m 1073.08,1336.93 h 40.89 l 32.77,22.94 h -40.9 z"
             id="path3273" /><path
             d="m 1113.97,1336.93 v -32.44 l 32.77,22.95 v 32.43 z"
             id="path3274" /><path
             d="M 1113.97,1304.49 H 993.412 l 32.768,22.95 h 120.56 z"
             id="path3275" /></g><path
           style="fill:#ffffff;fill-opacity:1;stroke:#000000;stroke-width:12.3515;stroke-linecap:round;stroke-linejoin:round;stroke-dasharray:none;stroke-opacity:1;paint-order:stroke fill markers;enable-background:accumulate;stop-color:#000000;stop-opacity:1"
           d="m 993.41172,1304.4938 v 32.4314 h 42.43158 v 115.9689 h 37.2325 v -115.9689 h 40.8944 v -32.4314 z"
           id="path2763" /></g><g
         id="g3243"
         style="display:inline;opacity:1;fill:#ffffff;fill-opacity:1;stroke:#000000;stroke-width:7.71969;stroke-linecap:round;stroke-linejoin:round;stroke-dasharray:none;stroke-opacity:1;paint-order:stroke fill markers"
         transform="translate(-2.7511012e-6)"><g
           style="opacity:1;fill:#000000;fill-opacity:1;stroke:#000000;stroke-width:13.3369;stroke-linecap:round;stroke-linejoin:round;stroke-dasharray:none;stroke-opacity:1;paint-order:stroke fill markers;enable-background:accumulate;stop-color:#000000"
           id="g3242"><path
             d="m 1150.41,1304.49 v 148.4 l 32.76,22.95 v -148.4 z"
             id="path3239" /><path
             d="m 1150.41,1452.89 h 43.41 l 32.76,22.95 h -43.41 z"
             id="path3240" /><path
             d="m 1193.82,1452.89 v -148.4 l 32.76,22.95 v 148.4 z"
             id="path3241" /><path
             d="m 1193.82,1304.49 h -43.41 l 32.76,22.95 h 43.41 z"
             id="path3242" /></g><path
           style="opacity:1;fill:#ffffff;fill-opacity:1;stroke:#000000;stroke-width:13.3369;stroke-linecap:round;stroke-linejoin:round;stroke-dasharray:none;stroke-opacity:1;paint-order:stroke fill markers;enable-background:accumulate;stop-color:#000000"
           d="m 1150.4081,1304.4938 v 148.4002 h 43.4103 v -148.4002 z"
           id="path2765" /></g><g
         id="g3268"><g
           style="opacity:1;fill:#000000;fill-opacity:1;stroke:#000000;stroke-width:12.3515;stroke-linecap:round;stroke-linejoin:round;stroke-dasharray:none;stroke-opacity:1;paint-order:stroke fill markers;enable-background:accumulate;stop-color:#000000"
           id="g3267"><path
             d="m 1245.63,1303.82 v 149.6 l 32.77,22.94 v -149.6 z"
             id="path3243" /><path
             d="m 1245.63,1453.42 40.15,0.16 32.76,22.94 -40.14,-0.16 z"
             id="path3244" /><path
             d="M 1285.78,1453.58 V 1403 l 32.76,22.95 v 50.57 z"
             id="path3245" /><path
             d="m 1285.78,1403 h 26.86 l 32.77,22.95 h -26.87 z"
             id="path3246" /><path
             d="m 1312.64,1403 c 7.05,0 11.85,0.73 14.85,2.83 l 32.77,22.95 c -3,-2.1 -7.8,-2.83 -14.85,-2.83 z"
             id="path3247" /><path
             d="m 1327.49,1405.83 c 2.7,1.89 3.94,4.89 4.05,9.47 l 32.77,22.94 c -0.11,-4.57 -1.35,-7.57 -4.05,-9.46 z"
             id="path3248" /><path
             d="m 1331.54,1415.3 v 0.82 l 32.77,22.94 v -0.82 z"
             id="path3249" /><path
             d="m 1331.54,1416.12 c -0.2,3.71 -0.2,7.17 -0.2,9.24 l 32.77,22.95 c 0,-2.08 -0.01,-5.53 0.2,-9.25 z"
             id="path3250" /><path
             d="m 1331.34,1425.36 v 28.22 l 32.77,22.94 v -28.21 z"
             id="path3251" /><path
             d="m 1331.34,1453.58 h 40.35 l 32.77,22.94 h -40.35 z"
             id="path3252" /><path
             d="m 1371.69,1453.58 c 0,0 0.2,-14.67 0,-22.29 l 32.77,22.95 c 0.2,7.62 0,22.28 0,22.28 z"
             id="path3253" /><path
             d="m 1371.69,1431.29 v -0.03 l 32.77,22.94 v 0.04 z"
             id="path3254" /><path
             d="m 1371.69,1431.26 v -0.04 l 32.77,22.94 v 0.04 z"
             id="path3255" /><path
             d="m 1371.69,1431.22 c 0,-26.78 0.31,-36.08 -7.12,-41.28 l 32.76,22.94 c 7.43,5.21 7.13,14.5 7.13,41.28 z"
             id="path3256" /><path
             d="m 1364.57,1389.94 c -2.44,-1.7 -5.7,-2.97 -10.09,-4.27 l 32.77,22.95 c 4.38,1.29 7.65,2.56 10.08,4.26 z"
             id="path3257" /><path
             d="m 1354.48,1385.67 c 12.8,-7.38 17.57,-24.57 17.57,-39.82 l 32.77,22.95 c 0,15.25 -4.78,32.43 -17.57,39.82 z"
             id="path3258" /><path
             d="m 1372.05,1345.85 c 0,-12.24 -7.53,-22.87 -18.25,-30.38 l 32.76,22.94 c 10.73,7.51 18.26,18.14 18.26,30.39 z"
             id="path3259" /><path
             d="m 1353.8,1315.47 c -10.71,-7.49 -24.59,-11.88 -37.35,-11.65 l 32.76,22.94 c 12.77,-0.23 26.65,4.16 37.35,11.65 z"
             id="path3260" /><path
             d="m 1316.45,1303.82 h -70.82 l 32.77,22.94 h 70.81 z"
             id="path3261" /><path
             d="m 1285.78,1332.97 h 24.88 l 32.77,22.95 h -24.89 z"
             id="path3262" /><path
             d="m 1310.66,1332.97 c 5.86,0 13.33,0.6 18.69,4.35 l 32.77,22.94 c -5.36,-3.75 -12.84,-4.34 -18.69,-4.34 z"
             id="path3263" /><path
             d="m 1329.35,1337.32 c 4.15,2.91 7.04,7.7 6.94,15.58 l 32.77,22.94 c 0.09,-7.88 -2.79,-12.67 -6.94,-15.58 z"
             id="path3264" /><path
             d="m 1336.29,1352.9 c -0.18,14.47 -12.43,17.67 -26.33,17.67 l 32.77,22.94 c 13.9,0 26.15,-3.2 26.33,-17.67 z"
             id="path3265" /><path
             d="m 1309.96,1370.57 h -24.18 l 32.76,22.94 h 24.19 z"
             id="path3266" /><path
             d="m 1285.78,1370.57 v -37.6 l 32.76,22.95 v 37.59 z"
             id="path3267" /></g><path
           id="path2764"
           style="opacity:1;fill:#ffffff;fill-opacity:1;stroke:#000000;stroke-width:12.3515;stroke-linecap:round;stroke-linejoin:round;stroke-dasharray:none;stroke-opacity:1;paint-order:stroke fill markers;enable-background:accumulate;stop-color:#000000"
           d="m 1245.6343,1303.8158 v 149.606 l 40.1428,0.1584 v -50.577 h 26.8673 c 13.3854,0 18.6674,2.6341 18.8986,12.2948 v 0.8209 c -0.2041,3.7145 -0.2021,7.1685 -0.2021,9.2446 v 28.2167 h 40.3499 c 0,0 0.2015,-14.6658 0,-22.2859 v -0.039 -0.039 c 0,-35.556 0.5403,-40.2892 -17.2063,-45.5431 12.7913,-7.3819 17.5675,-24.5692 17.5675,-39.8183 0,-24.4608 -30.056,-42.4909 -55.6033,-42.0388 z m 40.1428,29.1578 h 24.8869 c 10.3811,0 25.8497,1.8624 25.627,19.9245 -0.1784,14.4706 -12.4289,17.6716 -26.326,17.6716 h -24.1879 z" /></g><g
         id="g3288"><g
           style="fill:#000000;fill-opacity:1;stroke:#000000;stroke-width:12.3515;stroke-linecap:round;stroke-linejoin:round;stroke-dasharray:none;stroke-opacity:1;paint-order:stroke fill markers;enable-background:accumulate;stop-color:#000000;stop-opacity:1"
           id="g3287"><path
             d="m 1420.37,1304.49 v 148.4 l 32.77,22.95 v -148.4 z"
             id="path3276" /><path
             d="m 1420.37,1452.89 h 113.08 l 32.76,22.95 h -113.07 z"
             id="path3277" /><path
             d="m 1533.45,1452.89 v -32.43 l 32.76,22.94 v 32.44 z"
             id="path3278" /><path
             d="m 1533.45,1420.46 h -75.84 l 32.76,22.94 h 75.84 z"
             id="path3279" /><path
             d="m 1457.61,1420.46 v -27.86 l 32.76,22.95 v 27.85 z"
             id="path3280" /><path
             d="m 1457.61,1392.6 h 67 l 32.77,22.95 h -67.01 z"
             id="path3281" /><path
             d="m 1524.61,1392.6 v -32.43 l 32.77,22.95 v 32.43 z"
             id="path3282" /><path
             d="m 1524.61,1360.17 h -67 l 32.76,22.95 h 67.01 z"
             id="path3283" /><path
             d="m 1457.61,1360.17 v -23.24 l 32.76,22.94 v 23.25 z"
             id="path3284" /><path
             d="m 1457.61,1336.93 h 72.38 l 32.76,22.94 h -72.38 z"
             id="path3285" /><path
             d="m 1529.99,1336.93 v -32.44 l 32.76,22.95 v 32.43 z"
             id="path3286" /><path
             d="m 1529.99,1304.49 h -109.62 l 32.77,22.95 h 109.61 z"
             id="path3287" /></g><path
           style="fill:#ffffff;fill-opacity:1;stroke:#000000;stroke-width:12.3515;stroke-linecap:round;stroke-linejoin:round;stroke-dasharray:none;stroke-opacity:1;paint-order:stroke fill markers;enable-background:accumulate;stop-color:#000000;stop-opacity:1"
           d="m 1420.3729,1304.4938 v 148.4003 h 113.0721 v -32.4338 h -75.8396 v -27.8554 h 67.0076 v -32.4316 h -67.0076 v -23.2481 h 72.3825 v -32.4314 z"
           id="path2762" /></g></g><g
       id="g2769"
       transform="translate(-11.672044,-21.210812)"
       style="fill:#ffffff;fill-opacity:1;stroke:#000000;stroke-width:7.71969;stroke-linecap:round;stroke-linejoin:round;stroke-dasharray:none;stroke-opacity:1;paint-order:stroke fill markers"><g
         id="g3298"
         transform="translate(13.978914)"><g
           style="fill:#000000;fill-opacity:1;stroke:#000000;stroke-width:12.3515;stroke-linecap:round;stroke-linejoin:round;stroke-dasharray:none;stroke-opacity:1;paint-order:stroke fill markers;enable-background:accumulate;stop-color:#000000;stop-opacity:1"
           id="g3297"><path
             d="m 1022.75,1068.08 v 148.4 l 32.76,22.95 v -148.4 z"
             id="path3288" /><path
             d="m 1022.75,1216.48 h 37.23 l 32.76,22.95 h -37.23 z"
             id="path3289" /><path
             d="m 1059.98,1216.48 v -57.56 l 32.76,22.94 v 57.57 z"
             id="path3290" /><path
             d="m 1059.98,1158.92 h 69.5 l 32.77,22.94 h -69.51 z"
             id="path3291" /><path
             d="m 1129.48,1158.92 v -32.43 l 32.77,22.94 v 32.43 z"
             id="path3292" /><path
             d="m 1129.48,1126.49 h -69.5 l 32.76,22.94 h 69.51 z"
             id="path3293" /><path
             d="m 1059.98,1126.49 v -25.98 l 32.76,22.95 v 25.97 z"
             id="path3294" /><path
             d="m 1059.98,1100.51 h 69.5 l 32.77,22.95 h -69.51 z"
             id="path3295" /><path
             d="m 1129.48,1100.51 v -32.43 l 32.77,22.95 v 32.43 z"
             id="path3296" /><path
             d="m 1129.48,1068.08 h -106.73 l 32.76,22.95 h 106.74 z"
             id="path3297" /></g><path
           style="fill:#ffffff;fill-opacity:1;stroke:#000000;stroke-width:12.3515;stroke-linecap:round;stroke-linejoin:round;stroke-dasharray:none;stroke-opacity:1;paint-order:stroke fill markers;enable-background:accumulate;stop-color:#000000;stop-opacity:1"
           d="m 1022.7451,1068.0821 v 148.4002 h 37.2325 v -57.5605 h 69.5041 v -32.4316 h -69.5041 v -25.9765 h 69.5041 v -32.4316 z"
           id="path2769" /></g><g
         id="g3338"
         style="display:inline;opacity:1;fill:#ffffff;fill-opacity:1;stroke:#000000;stroke-width:7.71969;stroke-linecap:round;stroke-linejoin:round;stroke-dasharray:none;stroke-opacity:1;paint-order:stroke fill markers"
         transform="translate(13.978914)"><g
           style="opacity:1;fill:#000000;fill-opacity:1;stroke:#000000;stroke-width:12.3515;stroke-linecap:round;stroke-linejoin:round;stroke-dasharray:none;stroke-opacity:1;paint-order:stroke fill markers;enable-background:accumulate;stop-color:#000000;stop-opacity:1"
           id="g3337"><path
             d="m 1217.28,1068.08 -61.08,148.4 32.76,22.95 61.08,-148.4 z"
             id="path3327" /><path
             d="m 1156.2,1216.48 h 44.47 l 32.76,22.95 h -44.47 z"
             id="path3328" /><path
             d="m 1200.67,1216.48 10.9,-28.22 32.76,22.94 -10.9,28.23 z"
             id="path3329" /><path
             d="m 1211.57,1188.26 h 53.66 l 32.77,22.94 h -53.67 z"
             id="path3330" /><path
             d="m 1265.23,1188.26 10.68,28.22 32.76,22.95 -10.67,-28.23 z"
             id="path3331" /><path
             d="m 1275.91,1216.48 h 44.65 l 32.77,22.95 h -44.66 z"
             id="path3332" /><path
             d="m 1320.56,1216.48 -59.43,-148.4 32.77,22.95 59.43,148.4 z"
             id="path3333" /><path
             d="m 1261.13,1068.08 h -43.85 l 32.76,22.95 h 43.86 z"
             id="path3334" /><path
             d="m 1238.52,1114.56 14.36,41.26 32.76,22.95 -14.35,-41.27 z"
             id="path3335" /><path
             d="m 1252.88,1155.82 h -28.71 l 32.76,22.95 h 28.71 z"
             id="path3336" /><path
             d="m 1224.17,1155.82 14.35,-41.26 32.77,22.94 -14.36,41.27 z"
             id="path3337" /></g><path
           id="path2766"
           style="opacity:1;fill:#ffffff;fill-opacity:1;stroke:#000000;stroke-width:12.3515;stroke-linecap:round;stroke-linejoin:round;stroke-dasharray:none;stroke-opacity:1;paint-order:stroke fill markers;enable-background:accumulate;stop-color:#000000;stop-opacity:1"
           d="m 1217.2764,1068.0821 -61.0812,148.4002 h 44.4725 l 10.8997,-28.2244 h 53.6618 l 10.678,28.2244 h 44.6559 l -59.4316,-148.4002 z m 21.2451,46.478 14.355,41.2643 h -28.71 z" /></g><g
         id="g3302"><g
           style="fill:#000000;fill-opacity:1;stroke:#000000;stroke-width:13.3369;stroke-linecap:round;stroke-linejoin:round;stroke-dasharray:none;stroke-opacity:1;paint-order:stroke fill markers;enable-background:accumulate;stop-color:#000000;stop-opacity:1"
           id="g3301"><path
             d="m 1374.54,1068.08 v 148.4 l 32.76,22.95 v -148.4 z"
             id="path3298" /><path
             d="m 1374.54,1216.48 h 43.41 l 32.76,22.95 h -43.41 z"
             id="path3299" /><path
             d="m 1417.95,1216.48 v -148.4 l 32.76,22.95 v 148.4 z"
             id="path3300" /><path
             d="m 1417.95,1068.08 h -43.41 l 32.76,22.95 h 43.41 z"
             id="path3301" /></g><path
           style="fill:#ffffff;fill-opacity:1;stroke:#000000;stroke-width:13.3369;stroke-linecap:round;stroke-linejoin:round;stroke-dasharray:none;stroke-opacity:1;paint-order:stroke fill markers;enable-background:accumulate;stop-color:#000000;stop-opacity:1"
           d="m 1374.5377,1068.0821 v 148.4002 h 43.4103 v -148.4002 z"
           id="path2768" /></g><g
         id="g3327"><g
           style="fill:#000000;fill-opacity:1;stroke:#000000;stroke-width:12.3515;stroke-linecap:round;stroke-linejoin:round;stroke-dasharray:none;stroke-opacity:1;paint-order:stroke fill markers;enable-background:accumulate;stop-color:#000000;stop-opacity:1"
           id="g3326"><path
             d="m 1468.43,1067.4 v 149.61 l 32.76,22.94 v -149.6 z"
             id="path3302" /><path
             d="m 1468.43,1217.01 40.14,0.16 32.77,22.94 -40.15,-0.16 z"
             id="path3303" /><path
             d="m 1508.57,1217.17 v -50.58 l 32.77,22.94 v 50.58 z"
             id="path3304" /><path
             d="m 1508.57,1166.59 h 26.87 l 32.76,22.94 h -26.86 z"
             id="path3305" /><path
             d="m 1535.44,1166.59 c 7.04,0 11.85,0.73 14.85,2.83 l 32.76,22.95 c -3,-2.11 -7.8,-2.84 -14.85,-2.84 z"
             id="path3306" /><path
             d="m 1550.29,1169.42 c 2.69,1.89 3.94,4.89 4.05,9.47 l 32.76,22.94 c -0.11,-4.58 -1.35,-7.57 -4.05,-9.46 z"
             id="path3307" /><path
             d="m 1554.34,1178.89 v 0.82 l 32.76,22.94 v -0.82 z"
             id="path3308" /><path
             d="m 1554.34,1179.71 c -0.21,3.71 -0.21,7.17 -0.21,9.24 l 32.77,22.94 c 0,-2.07 0,-5.53 0.2,-9.24 z"
             id="path3309" /><path
             d="m 1554.13,1188.95 v 28.22 l 32.77,22.94 v -28.22 z"
             id="path3310" /><path
             d="m 1554.13,1217.17 h 40.35 l 32.77,22.94 h -40.35 z"
             id="path3311" /><path
             d="m 1594.48,1217.17 c 0,0 0.21,-14.67 0,-22.29 l 32.77,22.95 c 0.2,7.62 0,22.28 0,22.28 z"
             id="path3312" /><path
             d="m 1594.48,1194.88 v -0.04 l 32.77,22.95 v 0.04 z"
             id="path3313" /><path
             d="m 1594.48,1194.84 v -0.04 l 32.77,22.95 v 0.04 z"
             id="path3314" /><path
             d="m 1594.48,1194.8 c 0,-26.77 0.31,-36.07 -7.12,-41.27 l 32.77,22.94 c 7.43,5.2 7.12,14.5 7.12,41.28 z"
             id="path3315" /><path
             d="m 1587.36,1153.53 c -2.43,-1.71 -5.7,-2.97 -10.08,-4.27 l 32.76,22.94 c 4.39,1.3 7.65,2.57 10.09,4.27 z"
             id="path3316" /><path
             d="m 1577.28,1149.26 c 12.79,-7.38 17.57,-24.57 17.57,-39.82 l 32.76,22.95 c 0,15.25 -4.77,32.43 -17.57,39.81 z"
             id="path3317" /><path
             d="m 1594.85,1109.44 c 0,-12.24 -7.53,-22.87 -18.26,-30.38 l 32.77,22.94 c 10.72,7.51 18.25,18.14 18.25,30.39 z"
             id="path3318" /><path
             d="m 1576.59,1079.06 c -10.7,-7.5 -24.59,-11.88 -37.35,-11.66 l 32.77,22.95 c 12.76,-0.23 26.64,4.16 37.35,11.65 z"
             id="path3319" /><path
             d="m 1539.24,1067.4 h -70.81 l 32.76,22.95 h 70.82 z"
             id="path3320" /><path
             d="m 1508.57,1096.56 h 24.89 l 32.76,22.94 h -24.88 z"
             id="path3321" /><path
             d="m 1533.46,1096.56 c 5.85,0 13.32,0.59 18.69,4.35 l 32.76,22.94 c -5.36,-3.75 -12.83,-4.35 -18.69,-4.35 z"
             id="path3322" /><path
             d="m 1552.15,1100.91 c 4.14,2.9 7.03,7.7 6.93,15.58 l 32.77,22.94 c 0.1,-7.88 -2.79,-12.67 -6.94,-15.58 z"
             id="path3323" /><path
             d="m 1559.08,1116.49 c -0.17,14.47 -12.42,17.67 -26.32,17.67 l 32.76,22.94 c 13.9,0 26.15,-3.2 26.33,-17.67 z"
             id="path3324" /><path
             d="m 1532.76,1134.16 h -24.19 l 32.77,22.94 h 24.18 z"
             id="path3325" /><path
             d="m 1508.57,1134.16 v -37.6 l 32.77,22.94 v 37.6 z"
             id="path3326" /></g><path
           id="path2767"
           style="fill:#ffffff;fill-opacity:1;stroke:#000000;stroke-width:12.3515;stroke-linecap:round;stroke-linejoin:round;stroke-dasharray:none;stroke-opacity:1;paint-order:stroke fill markers;enable-background:accumulate;stop-color:#000000;stop-opacity:1"
           d="m 1468.4275,1067.404 v 149.606 l 40.1428,0.1584 v -50.577 h 26.8673 c 13.3854,0 18.6674,2.6341 18.8986,12.2948 v 0.8209 c -0.2041,3.7145 -0.2021,7.1685 -0.2021,9.2446 v 28.2167 h 40.3499 c 0,0 0.2015,-14.6658 0,-22.2859 v -0.039 -0.039 c 0,-35.556 0.5403,-40.2892 -17.2063,-45.5431 12.7913,-7.3819 17.5675,-24.5692 17.5675,-39.8183 0,-24.4608 -30.056,-42.4909 -55.6033,-42.0388 z m 40.1428,29.1578 h 24.8869 c 10.3811,0 25.8497,1.8624 25.627,19.9245 -0.1784,14.4706 -12.4289,17.6716 -26.326,17.6716 h -24.1879 z" /></g></g><g
       id="g2773"
       transform="translate(-182.06285,-0.64488488)"
       style="fill:#ffffff;fill-opacity:1;stroke:#000000;stroke-width:7.71969;stroke-linecap:round;stroke-linejoin:round;stroke-dasharray:none;stroke-opacity:1;paint-order:stroke fill markers"><g
         id="g3346"><g
           style="fill:#000000;fill-opacity:1;stroke:#000000;stroke-width:12.3515;stroke-linecap:round;stroke-linejoin:round;stroke-dasharray:none;stroke-opacity:1;paint-order:stroke fill markers;enable-background:accumulate;stop-color:#000000;stop-opacity:1"
           id="g3345"><path
             d="m 1081.16,886.352 h 42.61 l 32.77,22.943 h -42.61 z"
             id="path3338" /><path
             d="M 1123.77,886.352 V 1002.8 l 32.77,22.95 V 909.295 Z"
             id="path3339" /><path
             d="m 1123.77,1002.8 h 36.77 l 32.77,22.95 h -36.77 z"
             id="path3340" /><path
             d="m 1160.54,1002.8 c 0,-38.813 0,-77.631 0,-116.448 l 32.77,22.943 c 0,38.818 0,77.635 0,116.455 z"
             id="path3341" /><path
             d="m 1160.54,886.352 h 41.07 l 32.76,22.943 h -41.06 z"
             id="path3342" /><path
             d="m 1201.61,886.352 v -31.949 l 32.76,22.943 v 31.949 z"
             id="path3343" /><path
             d="m 1201.61,854.403 h -120.45 l 32.77,22.943 h 120.44 z"
             id="path3344" /><path
             d="m 1081.16,854.403 v 31.949 l 32.77,22.943 v -31.949 z"
             id="path3345" /></g><path
           id="path2773"
           style="fill:#ffffff;fill-opacity:1;stroke:#000000;stroke-width:12.3515;stroke-linecap:round;stroke-linejoin:round;stroke-dasharray:none;stroke-opacity:1;paint-order:stroke fill markers;enable-background:accumulate;stop-color:#000000;stop-opacity:1"
           d="m 1081.1639,886.35244 h 42.6088 v 116.45116 h 36.7682 c 10e-5,-38.81704 0,-77.6341 0,-116.45116 h 41.0654 v -31.94931 h -120.4424 z" /></g><g
         id="g3394"
         style="display:inline;opacity:1;fill:#ffffff;fill-opacity:1;stroke:#000000;stroke-width:7.71969;stroke-linecap:round;stroke-linejoin:round;stroke-dasharray:none;stroke-opacity:1;paint-order:stroke fill markers"
         transform="matrix(1.013758,0,0,1.0111254,-20.22123,-10.232583)"><g
           style="opacity:1;fill:#000000;fill-opacity:1;stroke:#000000;stroke-width:13.0291;stroke-linecap:round;stroke-linejoin:round;stroke-dasharray:none;stroke-opacity:1;paint-order:stroke fill markers;enable-background:accumulate;stop-color:#000000;stop-opacity:1"
           id="g3393"><path
             d="m 1297.6,854.403 v 0 l 32.77,22.943 v 0 z"
             id="path3369" /><path
             d="m 1297.6,854.403 v 10e-4 l 32.77,22.943 v -10e-4 z"
             id="path3370" /><path
             d="m 1297.6,854.404 c -21.85,0 -40.45,6.705 -53.98,19.845 l 32.76,22.943 c 13.53,-13.14 32.14,-19.845 53.99,-19.845 z"
             id="path3371" /><path
             d="m 1243.62,874.249 c -14.19,13.73 -22.04,33.424 -22.04,54.356 l 32.76,22.943 c 0,-20.932 7.86,-40.626 22.04,-54.356 z"
             id="path3372" /><path
             d="m 1221.58,928.605 c 0,20.928 7.83,40.79 22.05,54.366 l 32.77,22.939 c -14.23,-13.572 -22.06,-33.434 -22.06,-54.362 z"
             id="path3373" /><path
             d="m 1243.63,982.971 c 2.56,2.482 5.28,4.729 8.16,6.742 l 32.76,22.947 c -2.87,-2.02 -5.59,-4.26 -8.15,-6.75 z"
             id="path3374" /><path
             d="m 1251.79,989.713 c 12.51,8.762 27.96,13.087 46.01,13.087 l 32.77,22.95 c -18.05,0 -33.51,-4.33 -46.02,-13.09 z"
             id="path3375" /><path
             d="m 1297.8,1002.8 c 22.2,0 40.48,-6.544 54.18,-19.83 l 32.76,22.94 c -13.7,13.29 -31.97,19.84 -54.17,19.84 z"
             id="path3376" /><path
             d="m 1351.98,982.97 c 13.85,-13.249 22.05,-33.517 22.05,-53.448 l 32.77,22.943 c 0,19.932 -8.2,40.199 -22.06,53.445 z"
             id="path3377" /><path
             d="m 1374.03,929.522 c 0,-21.801 -7.83,-41.701 -22.04,-55.277 l 32.76,22.943 c 14.22,13.576 22.05,33.476 22.05,55.277 z"
             id="path3378" /><path
             d="m 1351.99,874.245 -0.01,-0.01 32.76,22.943 0.01,0.01 z"
             id="path3379" /><path
             d="m 1351.98,874.235 c -2.62,-2.536 -5.39,-4.821 -8.3,-6.86 l 32.77,22.943 c 2.91,2.039 5.67,4.324 8.29,6.86 z"
             id="path3380" /><path
             d="m 1343.68,867.375 c -12.52,-8.765 -27.78,-12.972 -46.08,-12.972 l 32.77,22.943 c 18.3,0 33.56,4.207 46.08,12.972 z"
             id="path3381" /><path
             d="m 1297.6,854.403 v 0 l 32.77,22.943 v 0 z"
             id="path3382" /><path
             d="m 1297.8,885.982 c 8.19,0 15.01,2.05 20.56,5.934 l 32.76,22.943 c -5.54,-3.884 -12.37,-5.934 -20.55,-5.934 z"
             id="path3383" /><path
             d="m 1318.36,891.916 c 2.15,1.504 4.1,3.282 5.87,5.324 l 32.77,22.943 c -1.77,-2.042 -3.73,-3.82 -5.88,-5.324 z"
             id="path3384" /><path
             d="m 1324.23,897.24 c 6.34,7.312 10.17,18.252 10.17,32.099 l 32.76,22.943 c 0,-13.847 -3.82,-24.787 -10.16,-32.099 z"
             id="path3385" /><path
             d="m 1334.4,929.339 c 0,13.05 -3.93,23.599 -10.35,30.762 l 32.76,22.943 c 6.42,-7.163 10.35,-17.712 10.35,-30.762 z"
             id="path3386" /><path
             d="m 1324.05,960.101 c -6.42,7.162 -15.23,11.125 -26.25,11.125 l 32.77,22.943 c 11.02,0 19.82,-3.963 26.24,-11.125 z"
             id="path3387" /><path
             d="m 1297.8,971.226 c -8.15,0 -15.01,-2.082 -20.58,-5.988 l 32.76,22.943 c 5.58,3.906 12.43,5.988 20.59,5.988 z"
             id="path3388" /><path
             d="m 1277.22,965.238 c -2.11,-1.477 -4.04,-3.216 -5.79,-5.201 l 32.77,22.943 c 1.74,1.985 3.67,3.724 5.78,5.201 z"
             id="path3389" /><path
             d="m 1271.43,960.037 c -6.37,-7.234 -10.22,-17.978 -10.22,-31.432 l 32.77,22.943 c 0,13.454 3.85,24.198 10.22,31.432 z"
             id="path3390" /><path
             d="m 1261.21,928.605 c 0,-13.454 3.85,-24.2 10.22,-31.435 l 32.77,22.943 c -6.37,7.235 -10.22,17.981 -10.22,31.435 z"
             id="path3391" /><path
             d="m 1271.43,897.17 c 6.37,-7.234 15.13,-11.188 26.37,-11.188 l 32.77,22.943 c -11.24,0 -20.01,3.954 -26.37,11.188 z"
             id="path3392" /><path
             d="m 1297.8,885.982 v 0 l 32.77,22.943 v 0 z"
             id="path3393" /></g><path
           id="path2770"
           style="opacity:1;fill:#ffffff;fill-opacity:1;stroke:#000000;stroke-width:13.0291;stroke-linecap:round;stroke-linejoin:round;stroke-dasharray:none;stroke-opacity:1;paint-order:stroke fill markers;enable-background:accumulate;stop-color:#000000;stop-opacity:1"
           d="m 1297.5997,854.40314 v 2.6e-4 l 4e-4,2.5e-4 c -21.8452,0 -40.4529,6.70502 -53.9836,19.84555 -14.1835,13.73007 -22.0409,33.42364 -22.0409,54.35549 0,20.92791 7.8328,40.7906 22.0555,54.36668 13.7029,13.28537 31.9729,19.83253 54.1724,19.83253 22.2004,0 40.4716,-6.54764 54.1745,-19.83431 13.8538,-13.24858 22.0537,-33.51613 22.0537,-53.44752 0,-21.80093 -7.8288,-41.70079 -22.0453,-55.27669 l -0.011,-0.01 c -13.8771,-13.44028 -31.8131,-19.83253 -54.3761,-19.83255 z m 0.2038,31.57853 c 11.3536,0 20.0869,3.94521 26.4283,11.25784 6.3414,7.31261 10.1652,18.25227 10.1652,32.09955 0,13.05025 -3.9288,23.59913 -10.3502,30.76156 -6.4214,7.16242 -15.2268,11.12528 -26.2433,11.12528 -11.2414,0 -20.0048,-3.95428 -26.3719,-11.18876 -6.3673,-7.23447 -10.2212,-17.97852 -10.2212,-31.43246 0,-13.45394 3.8539,-24.19978 10.2212,-31.43426 6.3671,-7.23447 15.1305,-11.18875 26.3719,-11.18875 z" /></g><g
         id="g3359"><g
           style="fill:#000000;fill-opacity:1;stroke:#000000;stroke-width:12.9474;stroke-linecap:round;stroke-linejoin:round;stroke-dasharray:none;stroke-opacity:1;paint-order:stroke fill markers;enable-background:accumulate;stop-color:#000000;stop-opacity:1"
           id="g3358"><path
             d="m 1385.78,854.403 46.08,148.397 32.77,22.95 -46.08,-148.404 z"
             id="path3346" /><path
             d="m 1431.86,1002.8 h 35.75 l 32.77,22.95 h -35.75 z"
             id="path3347" /><path
             d="m 1467.61,1002.8 21.4,-75.104 32.77,22.943 -21.4,75.111 z"
             id="path3348" /><path
             d="m 1489.01,927.696 21.94,75.104 32.76,22.95 -21.93,-75.111 z"
             id="path3349" /><path
             d="m 1510.95,1002.8 h 35.75 l 32.76,22.95 h -35.75 z"
             id="path3350" /><path
             d="m 1546.7,1002.8 45.18,-148.397 32.77,22.943 -45.19,148.404 z"
             id="path3351" /><path
             d="m 1591.88,854.403 h -43.43 l 32.76,22.943 h 43.44 z"
             id="path3352" /><path
             d="m 1548.45,854.403 -19.38,79.756 32.77,22.943 19.37,-79.756 z"
             id="path3353" /><path
             d="m 1529.07,934.159 -20.98,-79.756 32.77,22.943 20.98,79.756 z"
             id="path3354" /><path
             d="m 1508.09,854.403 h -38.73 l 32.77,22.943 h 38.73 z"
             id="path3355" /><path
             d="m 1469.36,854.403 -20.07,79.515 32.77,22.944 20.07,-79.516 z"
             id="path3356" /><path
             d="m 1449.29,933.918 -20.07,-79.515 32.77,22.943 20.07,79.516 z"
             id="path3357" /><path
             d="m 1429.22,854.403 h -43.44 l 32.77,22.943 h 43.44 z"
             id="path3358" /></g><path
           style="fill:#ffffff;fill-opacity:1;stroke:#000000;stroke-width:12.9474;stroke-linecap:round;stroke-linejoin:round;stroke-dasharray:none;stroke-opacity:1;paint-order:stroke fill markers;enable-background:accumulate;stop-color:#000000;stop-opacity:1"
           d="m 1385.7827,854.40314 46.079,148.40046 h 35.7504 l 21.3989,-75.10796 21.9375,75.10796 h 35.7479 l 45.1845,-148.40046 h -43.4354 l -19.3749,79.75565 -20.9763,-79.75565 h -38.7353 l -20.0684,79.51531 -20.0684,-79.51531 z"
           id="path2772" /></g><g
         id="g3369"
         style="display:inline;opacity:1;fill:#ffffff;fill-opacity:1;stroke:#000000;stroke-width:7.71969;stroke-linecap:round;stroke-linejoin:round;stroke-dasharray:none;stroke-opacity:1;paint-order:stroke fill markers"><g
           style="fill:#000000;fill-opacity:1;stroke:#000000;stroke-width:13.1083;stroke-linecap:round;stroke-linejoin:round;stroke-dasharray:none;stroke-opacity:1;paint-order:stroke fill markers;enable-background:accumulate;stop-color:#000000;stop-opacity:1"
           id="g3368"><path
             d="M 1614.12,854.403 V 1002.8 l 32.76,22.95 V 877.346 Z"
             id="path3359" /><path
             d="m 1614.12,1002.8 h 41.93 l 32.77,22.95 h -41.94 z"
             id="path3360" /><path
             d="m 1656.05,1002.8 v -85.338 l 32.77,22.943 v 85.345 z"
             id="path3361" /><path
             d="m 1656.05,917.462 55.88,85.338 32.77,22.95 -55.88,-85.345 z"
             id="path3362" /><path
             d="m 1711.93,1002.8 h 39.92 l 32.76,22.95 h -39.91 z"
             id="path3363" /><path
             d="M 1751.85,1002.8 V 854.403 l 32.76,22.943 v 148.404 z"
             id="path3364" /><path
             d="m 1751.85,854.403 h -41.93 l 32.76,22.943 h 41.93 z"
             id="path3365" /><path
             d="m 1709.92,854.403 v 83.84 l 32.76,22.943 v -83.84 z"
             id="path3366" /><path
             d="m 1709.92,938.243 -55.02,-83.84 32.76,22.943 55.02,83.84 z"
             id="path3367" /><path
             d="m 1654.9,854.403 h -40.78 l 32.76,22.943 h 40.78 z"
             id="path3368" /></g><path
           style="fill:#ffffff;fill-opacity:1;stroke:#000000;stroke-width:13.1083;stroke-linecap:round;stroke-linejoin:round;stroke-dasharray:none;stroke-opacity:1;paint-order:stroke fill markers;enable-background:accumulate;stop-color:#000000;stop-opacity:1"
           d="m 1614.1169,854.40316 v 148.40044 h 41.9345 v -85.34181 l 55.8796,85.34181 h 39.9176 V 854.40316 h -41.933 v 83.83997 l -55.019,-83.83997 z"
           id="path2771" /></g></g></g><metadata
     id="metadata2"><rdf:RDF><cc:Work
         rdf:about=""><dc:contributor><cc:Agent><dc:title>Martin Chamberlin</dc:title></cc:Agent></dc:contributor><dc:title>Town Fair Tire logo</dc:title></cc:Work></rdf:RDF></metadata><path
     style="font-weight:bold;font-size:7.64621px;font-family:Arial;-inkscape-font-specification:'Arial Bold';text-align:center;text-anchor:middle;stroke-width:47.7889;stroke-linecap:round;stroke-linejoin:round;paint-order:stroke fill markers"
     d="m 122.22801,26.071758 q 0.7355,0 1.41126,0.369617 0.67576,0.365883 1.06032,1.052847 0.38828,0.686964 0.38828,1.437398 0,0.7467 -0.38082,1.426198 -0.37708,0.675763 -1.05658,1.05658 -0.67576,0.377084 -1.42246,0.377084 -0.7467,0 -1.4262,-0.377084 -0.67576,-0.380817 -1.05658,-1.05658 -0.37708,-0.679498 -0.37708,-1.426198 0,-0.750434 0.38455,-1.437398 0.38828,-0.686964 1.06404,-1.052847 0.67577,-0.369617 1.41127,-0.369617 z m 0.004,0.560026 q -0.58989,0 -1.13125,0.294946 -0.54136,0.294947 -0.85497,0.847505 -0.30988,0.552558 -0.30988,1.157385 0,0.601094 0.30241,1.146185 0.30615,0.545091 0.85124,0.851238 0.54509,0.306147 1.14245,0.306147 0.60109,0 1.14245,-0.306147 0.54509,-0.306147 0.85124,-0.851238 0.30615,-0.545091 0.30615,-1.146185 0,-0.604827 -0.31362,-1.157385 -0.30988,-0.552558 -0.85497,-0.847505 -0.54136,-0.294946 -1.13125,-0.294946 z m -1.29552,3.830572 v -3.035337 h 0.61602 q 0.86618,0 0.97071,0.0075 0.30615,0.02614 0.47416,0.123206 0.17174,0.09334 0.28374,0.291213 0.11574,0.194142 0.11574,0.433086 0,0.328548 -0.21654,0.563759 -0.21281,0.231477 -0.60109,0.287479 0.13814,0.05227 0.21281,0.115739 0.0747,0.05974 0.20534,0.231477 0.0336,0.0448 0.22401,0.369616 l 0.35841,0.612295 h -0.76163 l -0.25388,-0.492823 q -0.25761,-0.496555 -0.42562,-0.623494 -0.168,-0.130673 -0.42562,-0.130673 h -0.16054 v 1.24699 z m 0.61602,-1.724878 h 0.25015 q 0.53389,0 0.66083,-0.04107 0.13067,-0.04107 0.20534,-0.141873 0.0747,-0.104538 0.0747,-0.235211 0,-0.126939 -0.0747,-0.22401 -0.0709,-0.100805 -0.20534,-0.141873 -0.13441,-0.0448 -0.66083,-0.0448 h -0.25015 z"
     id="text1"
     aria-label="®" /></svg>
